<?xml version="1.0" encoding="utf-8"?>
<!-- Generated by IcoMoon.io -->
<!DOCTYPE svg PUBLIC "-//W3C//DTD SVG 1.1//EN" "http://www.w3.org/Graphics/SVG/1.1/DTD/svg11.dtd">
<svg version="1.1" xmlns="http://www.w3.org/2000/svg" xmlns:xlink="http://www.w3.org/1999/xlink" width="32" height="32" viewBox="0 0 32 32">
<path fill="#eeecea" d="M19.247 17.297c0.359 0 0.656 0.177 0.915 0.528 0.256 0.353 0.392 0.784 0.392 1.3 0 0.513-0.136 0.948-0.392 1.297-0.257 0.353-0.556 0.528-0.915 0.528-0.371 0-0.696-0.175-0.953-0.528-0.256-0.349-0.392-0.784-0.392-1.297 0-0.516 0.136-0.947 0.392-1.3 0.256-0.352 0.581-0.528 0.953-0.528zM23.833 12.552c0.995 1.081 1.5 2.393 1.5 3.937 0 0.997-0.115 1.897-0.345 2.697-0.233 0.796-0.525 1.445-0.872 1.945-0.352 0.501-0.784 0.94-1.299 1.319-0.515 0.381-0.988 0.656-1.42 0.831-0.433 0.176-0.927 0.311-1.481 0.408-0.556 0.095-0.968 0.148-1.257 0.164-0.284 0.012-0.584 0.019-0.913 0.019-0.073 0-0.324 0.005-0.729 0.020-0.401 0.017-0.747 0.021-1.016 0.021s-0.615-0.004-1.016-0.021c-0.405-0.015-0.656-0.020-0.729-0.020-0.328 0-0.629-0.007-0.913-0.019-0.291-0.016-0.701-0.069-1.257-0.164-0.564-0.096-1.048-0.232-1.481-0.408-0.432-0.175-0.907-0.449-1.419-0.831-0.516-0.379-0.948-0.817-1.3-1.319-0.348-0.5-0.639-1.149-0.872-1.945-0.231-0.8-0.345-1.7-0.345-2.697 0-1.544 0.505-2.857 1.5-3.937-0.109-0.055-0.113-0.596-0.011-1.623 0.084-1.028 0.303-1.976 0.66-2.843 1.245 0.132 2.787 0.839 4.628 2.108 0.621-0.159 1.468-0.244 2.556-0.244 1.136 0 1.988 0.085 2.557 0.245 0.839-0.567 1.64-1.028 2.407-1.379 0.779-0.348 1.34-0.555 1.692-0.609l0.528-0.12c0.36 0.865 0.579 1.813 0.661 2.843 0.101 1.025 0.097 1.567-0.012 1.621zM16.040 22.979c2.251 0 3.939-0.269 5.095-0.809 1.14-0.539 1.723-1.651 1.723-3.328 0-0.973-0.364-1.787-1.096-2.437-0.371-0.351-0.817-0.567-1.319-0.648-0.5-0.081-1.265-0.081-2.293 0-1.025 0.083-1.731 0.12-2.109 0.12-0.513 0-1.067-0.024-1.759-0.079-0.693-0.053-1.237-0.087-1.631-0.104-0.392-0.012-0.812 0.036-1.277 0.144-0.46 0.109-0.839 0.299-1.137 0.567-0.695 0.625-1.053 1.436-1.053 2.437 0 1.677 0.568 2.789 1.707 3.328 1.133 0.54 2.817 0.809 5.069 0.809h0.081zM12.795 17.297c0.357 0 0.656 0.177 0.913 0.528 0.256 0.353 0.392 0.784 0.392 1.3 0 0.513-0.136 0.948-0.392 1.297-0.256 0.353-0.556 0.528-0.913 0.528-0.372 0-0.696-0.175-0.955-0.528-0.256-0.349-0.392-0.784-0.392-1.297 0-0.516 0.136-0.947 0.392-1.3 0.257-0.352 0.581-0.528 0.955-0.528z"></path>
</svg>
