<?xml version="1.0" encoding="utf-8"?>
<!-- Generated by IcoMoon.io -->
<!DOCTYPE svg PUBLIC "-//W3C//DTD SVG 1.1//EN" "http://www.w3.org/Graphics/SVG/1.1/DTD/svg11.dtd">
<svg version="1.1" xmlns="http://www.w3.org/2000/svg" xmlns:xlink="http://www.w3.org/1999/xlink" width="32" height="32" viewBox="0 0 32 32">
<path fill="#eeecea" d="M10.667 25.333h-4v-13.333h4v13.333zM25.333 25.333h-4v-7.123c0-1.856-0.661-2.78-1.972-2.78-1.039 0-1.697 0.517-2.028 1.553 0 1.683 0 8.349 0 8.349h-4c0 0 0.053-12 0-13.333h3.157l0.244 2.667h0.083c0.82-1.333 2.131-2.237 3.928-2.237 1.367 0 2.472 0.38 3.316 1.335 0.849 0.956 1.272 2.239 1.272 4.040v7.529z"></path>
<path fill="#eeecea" d="M10.733 8.667c0 1.105-0.925 2-2.067 2s-2.067-0.895-2.067-2c0-1.105 0.925-2 2.067-2s2.067 0.895 2.067 2z"></path>
</svg>
