<?xml version="1.0" encoding="utf-8"?>
<!-- Generator: Adobe Illustrator 19.2.0, SVG Export Plug-In . SVG Version: 6.00 Build 0)  -->
<!DOCTYPE svg PUBLIC "-//W3C//DTD SVG 1.1//EN" "http://www.w3.org/Graphics/SVG/1.1/DTD/svg11.dtd">
<svg version="1.1" id="Layer_1" xmlns="http://www.w3.org/2000/svg" xmlns:xlink="http://www.w3.org/1999/xlink" x="0px" y="0px"
	 viewBox="0 0 281.2 60.7" style="enable-background:new 0 0 281.2 60.7;" xml:space="preserve">
<metadata><?xpacket begin="﻿" id="W5M0MpCehiHzreSzNTczkc9d"?>
<x:xmpmeta xmlns:x="adobe:ns:meta/" x:xmptk="Adobe XMP Core 5.6-c111 79.158366, 2015/09/25-01:12:00        ">
   <rdf:RDF xmlns:rdf="http://www.w3.org/1999/02/22-rdf-syntax-ns#">
      <rdf:Description rdf:about=""/>
   </rdf:RDF>
</x:xmpmeta>
                                                                                                    
                                                                                                    
                                                                                                    
                                                                                                    
                                                                                                    
                                                                                                    
                                                                                                    
                                                                                                    
                                                                                                    
                                                                                                    
                                                                                                    
                                                                                                    
                                                                                                    
                                                                                                    
                                                                                                    
                                                                                                    
                                                                                                    
                                                                                                    
                                                                                                    
                                                                                                    
                           
<?xpacket end="w"?></metadata>
<style type="text/css">
	.st0{fill:url(#SVGID_1_);}
</style>
<linearGradient id="SVGID_1_" gradientUnits="userSpaceOnUse" x1="131.4232" y1="82.9531" x2="143.5024" y2="15.8196">
	<stop  offset="0" style="stop-color:#F7EE80"/>
	<stop  offset="1" style="stop-color:#17AF95"/>
</linearGradient>
<path class="st0" d="M6.1,11.1c0-2.8,1.5-4.2,4.3-4.2h16.2c9.3,0,15.5,7.1,15.5,16.7c0,9.7-6.2,16.9-15.5,16.9h-6.8v8.9
	c0,2.7-1.4,4.2-4.2,4.2h-5.2c-2.8,0-4.3-1.5-4.3-4.2V11.1z M23.7,28.8c3.2,0,4.5-2.3,4.5-5.2s-1.3-5-4.3-5h-4.1v10.2H23.7z M44,11.1
	c0-2.8,1.5-4.2,4.3-4.2H61c4.3,0,7.2,0.3,9.3,1c5.3,1.8,9.2,7.1,9.2,14c0,4.7-1.9,10.3-6.5,13v0.1c0,0,1,1.2,2.1,3l5.8,10.4
	c1.8,3.2,0.2,5.1-2.9,5.1h-6c-2,0-3.8-0.8-5-3L61,39.2h-3.2v10.2c0,2.7-1.4,4.2-4.2,4.2h-5.2c-2.8,0-4.3-1.5-4.3-4.2V11.1z
	 M60.7,27.5c3.2,0,4.9-1.4,4.9-4.9c0-1.2-0.2-2.7-2.1-3.4c-1-0.5-2.1-0.5-3.6-0.5h-2.1v8.9H60.7z M105.5,6.1
	c14.8,0,24.7,10.5,24.7,23.8c0,13.7-9.9,24.4-24.7,24.4S80.9,43.7,80.9,30C80.9,16.6,90.7,6.1,105.5,6.1z M105.5,41.9
	c6.2,0,10.5-5.1,10.5-11.9c0-6.5-4.3-11.4-10.5-11.4c-6.2,0-10.5,4.9-10.5,11.4C95.1,36.8,99.4,41.9,105.5,41.9z M131.4,44l2.5-3.6
	c1.6-2.3,3.3-2.4,5.8-1c1.5,0.6,4.1,2.7,7.7,2.7c2.7,0,3.4-1,3.4-2.1c0-4.9-19.7-4-19.7-18.9c0-9,7.4-14.9,17.3-14.9
	c5.4,0,10.6,1.8,13,3.4c2.3,1.6,2.5,3.6,1.4,5.8l-1.9,3.7c-1.6,3.1-3.6,2.5-5.8,1.5c-2.3-1-4.1-2.1-6.9-2.1c-2.6,0-3.5,0.9-3.5,2.1
	c0,5.3,19.8,3.6,19.8,18.6c0,8.1-6.1,15.1-17.1,15.1c-6.4,0-12.5-2.5-15.2-4.5C130.6,48.6,129.4,46.9,131.4,44z M166.7,11.1
	c0-2.8,1.5-4.2,4.3-4.2h16.2c9.3,0,15.5,7.1,15.5,16.7c0,9.7-6.2,16.9-15.5,16.9h-6.8v8.9c0,2.7-1.4,4.2-4.2,4.2H171
	c-2.8,0-4.3-1.5-4.3-4.2V11.1z M184.3,28.8c3.2,0,4.5-2.3,4.5-5.2s-1.3-5-4.3-5h-4.1v10.2H184.3z M204.9,11.1c0-2.8,1.5-4.2,4.3-4.2
	h21.7c2.7,0,4.2,1.4,4.2,4.2v3.2c0,2.7-1.5,4.2-4.2,4.2h-12.3v5.6h8.8c2.8,0,4.3,1.5,4.3,4.2v3.2c0,2.8-1.5,4.2-4.3,4.2h-8.8v6h13.1
	c2.8,0,4.3,1.5,4.3,4.2v3.2c0,2.7-1.5,4.2-4.3,4.2h-22.5c-2.8,0-4.3-1.5-4.3-4.2V11.1z M237.9,11.1c0-2.8,1.5-4.2,4.3-4.2h12.7
	c4.3,0,7.2,0.3,9.3,1c5.3,1.8,9.2,7.1,9.2,14c0,4.7-1.9,10.3-6.5,13v0.1c0,0,1,1.2,2.1,3l5.8,10.4c1.8,3.2,0.2,5.1-2.9,5.1h-6
	c-2,0-3.8-0.8-5-3l-5.9-11.4h-3.2v10.2c0,2.7-1.4,4.2-4.2,4.2h-5.2c-2.8,0-4.3-1.5-4.3-4.2V11.1z M254.5,27.5c3.2,0,4.9-1.4,4.9-4.9
	c0-1.2-0.2-2.7-2.1-3.4c-1-0.5-2.1-0.5-3.6-0.5h-2.1v8.9H254.5z"/>
</svg>
