<?xml version="1.0" encoding="utf-8"?>
<!-- Generated by IcoMoon.io -->
<!DOCTYPE svg PUBLIC "-//W3C//DTD SVG 1.1//EN" "http://www.w3.org/Graphics/SVG/1.1/DTD/svg11.dtd">
<svg version="1.1" xmlns="http://www.w3.org/2000/svg" xmlns:xlink="http://www.w3.org/1999/xlink" width="32" height="32" viewBox="0 0 32 32">
<path fill="#eeecea" d="M25.187 9.349c1.077-0.661 1.791-1.564 2.14-2.712-1.048 0.556-2.092 0.937-3.135 1.148-0.937-1.008-2.124-1.52-3.547-1.52-1.391 0-2.565 0.488-3.524 1.437-0.953 0.956-1.435 2.117-1.435 3.473 0 0.412 0.052 0.78 0.156 1.092-4.101-0.14-7.496-1.841-10.171-5.116-0.453 0.801-0.68 1.617-0.68 2.461 0 1.735 0.732 3.109 2.193 4.119-0.833-0.071-1.568-0.281-2.193-0.627 0 1.239 0.364 2.273 1.093 3.184 0.732 0.901 1.672 1.476 2.82 1.721-0.416 0.107-0.855 0.157-1.305 0.157-0.416 0-0.711-0.035-0.885-0.111 0.307 1.009 0.885 1.828 1.721 2.455 0.833 0.629 1.792 0.961 2.869 0.991-1.776 1.393-3.807 2.083-6.104 2.083-0.563 0-0.961-0.008-1.203-0.051 2.263 1.469 4.781 2.199 7.568 2.199 2.852 0 5.372-0.723 7.565-2.168 2.193-1.437 3.812-3.211 4.852-5.299 1.045-2.085 1.563-4.256 1.563-6.523v-0.624c1.011-0.76 1.828-1.616 2.453-2.561-0.907 0.391-1.844 0.656-2.813 0.791z"></path>
</svg>
